<?xml version="1.0" encoding="utf-8"?>
<!-- Generator: Adobe Illustrator 16.0.0, SVG Export Plug-In . SVG Version: 6.00 Build 0)  -->
<!DOCTYPE svg PUBLIC "-//W3C//DTD SVG 1.1//EN" "http://www.w3.org/Graphics/SVG/1.1/DTD/svg11.dtd">
<svg version="1.1" id="Capa_1" xmlns="http://www.w3.org/2000/svg" xmlns:xlink="http://www.w3.org/1999/xlink" x="0px" y="0px"
	 width="640px" height="480px" viewBox="0 0 640 480" enable-background="new 0 0 640 480" xml:space="preserve">
<path fill="#5F5FFF" d="M640,0c-42.423,46.344-103.92-10.397-190.488,123.098c-57.218,88.235-79.218,121.449-172.918,116.908
	C131.101,232.955,87.603,426,152.1,482H640V0z"/>
<path fill="#E2D2F9" d="M640,74.098c-35.813,39.124-128.29-26.403-160.81,103.918c-19.606,78.572-19.606,148.093-145.977,98.692
	C218.686,231.938,173.669,433.725,228.117,481H640V74.098z"/>
<path fill="#FF4080" d="M640,139.595c-64.922,115.494-115.313,24.655-138.418,116.994c-25.499,101.91-56.872,126.141-112.494,101.91
	C293.092,316.682,240.595,370.016,266.094,481H640V139.595z"/>
</svg>
