<?xml version="1.0" encoding="utf-8"?>
<!-- Generator: Adobe Illustrator 23.0.0, SVG Export Plug-In . SVG Version: 6.00 Build 0)  -->
<svg version="1.1" id="Слой_1" xmlns="http://www.w3.org/2000/svg" xmlns:xlink="http://www.w3.org/1999/xlink" x="0px" y="0px"
	 viewBox="0 0 210 680.7" style="enable-background:new 0 0 210 680.7;" xml:space="preserve">
<style type="text/css">
	.st0{fill:#E4E4EF;}
	.st1{fill:#F2F2F9;}
	.st2{fill:#5F5FFF;}
	.st3{fill:#030047;}
	.st4{fill:#FFFFFF;}
	.st5{fill:#E2D2F9;}
	.st6{fill:#FF4080;}
</style>
<g>
	<g id="Background_34_">
		<g>
			
				<rect x="164.3" y="498.4" transform="matrix(0.4055 -0.9141 0.9141 0.4055 -361.6088 463.9103)" class="st0" width="23.1" height="23.1"/>
		</g>
		<g>
			<path class="st1" d="M166.6,470.8l21.7,18.7c0,0,8.4-13.7,0-21.4C177.8,458.5,166.6,470.8,166.6,470.8z"/>
		</g>
		<g>
			<circle class="st0" cx="179.3" cy="486.1" r="6.1"/>
		</g>
		<g>
			<path class="st0" d="M195.7,530.8c-0.2,0-0.5-0.1-0.6-0.3l-3.4-4.6c-0.2-0.3-0.2-0.8,0.2-1c0.3-0.2,0.8-0.2,1,0.2l3.4,4.6
				c0.2,0.3,0.2,0.8-0.2,1C196,530.8,195.8,530.8,195.7,530.8z"/>
		</g>
		<g>
			<path class="st0" d="M124.9,514.3c-0.2,0-0.4-0.1-0.6-0.2c-0.3-0.3-0.3-0.8,0.1-1.1l7.8-7c0.3-0.3,0.8-0.3,1.1,0.1
				s0.3,0.8-0.1,1.1l-7.8,7C125.2,514.2,125.1,514.3,124.9,514.3z"/>
		</g>
		<g>
			<path class="st0" d="M154.9,499.9c-0.2,0-0.4-0.1-0.6-0.3l-2.8-3.4c-0.3-0.3-0.2-0.8,0.1-1.1c0.3-0.3,0.8-0.2,1.1,0.1l2.8,3.4
				c0.3,0.3,0.2,0.8-0.1,1.1C155.2,499.8,155.1,499.9,154.9,499.9z"/>
		</g>
		<g>
			<path class="st0" d="M192.3,434.3c-0.2,0-0.3-0.1-0.5-0.2c-0.3-0.3-0.4-0.7-0.1-1.1l3.4-4.1c0.3-0.3,0.7-0.4,1.1-0.1
				c0.3,0.3,0.4,0.7,0.1,1.1l-3.4,4.1C192.7,434.2,192.5,434.3,192.3,434.3z"/>
		</g>
		<g>
			<path class="st0" d="M223.9,471.6c-0.2,0-0.4-0.1-0.6-0.3l-7-8.4c-0.3-0.3-0.2-0.8,0.1-1.1c0.3-0.3,0.8-0.2,1.1,0.1l7,8.4
				c0.3,0.3,0.2,0.8-0.1,1.1C224.2,471.5,224.1,471.6,223.9,471.6z"/>
		</g>
		<g>
			<path class="st0" d="M139.1,399.8c-0.1,0-0.1,0-0.2,0l-6.4-1.5c-0.4-0.1-0.7-0.5-0.6-0.9c0.1-0.4,0.5-0.7,0.9-0.6l6.4,1.5
				c0.4,0.1,0.7,0.5,0.6,0.9C139.7,399.5,139.4,399.8,139.1,399.8z"/>
		</g>
		<g id="Windows_1_">
			<g>
				<path class="st2" d="M205.6,474.7h-32.8v-32.8h32.8V474.7z M174.3,473.2h29.8v-29.8h-29.8V473.2z"/>
			</g>
			<g>
				<path class="st2" d="M186.3,565.4h-48.5v-48.5h48.5V565.4z M139.2,563.9h45.5v-45.5h-45.5V563.9z"/>
			</g>
			<g>
				<path class="st2" d="M195.7,465.5c-0.2,0-0.4-0.1-0.5-0.2l-13-12.9c-0.3-0.3-0.3-0.8,0-1.1c0.3-0.3,0.8-0.3,1.1,0l12.9,12.9
					c0.3,0.3,0.3,0.8,0,1.1C196.1,465.5,195.9,465.5,195.7,465.5z"/>
			</g>
			<g>
				<g>
					<path class="st2" d="M182.7,465.5c-0.2,0-0.4-0.1-0.5-0.2c-0.3-0.3-0.3-0.8,0-1.1l12.9-12.9c0.3-0.3,0.8-0.3,1.1,0
						s0.3,0.8,0,1.1l-12.9,12.9C183.1,465.5,182.9,465.5,182.7,465.5z"/>
				</g>
			</g>
			<g>
				<path class="st2" d="M172.4,533.7h-20.3c-0.4,0-0.8-0.3-0.8-0.8s0.3-0.8,0.8-0.8h20.3c0.4,0,0.8,0.3,0.8,0.8
					S172.8,533.7,172.4,533.7z"/>
			</g>
			<g>
				<path class="st2" d="M172.4,540.1h-20.3c-0.4,0-0.8-0.3-0.8-0.8s0.3-0.8,0.8-0.8h20.3c0.4,0,0.8,0.3,0.8,0.8
					S172.8,540.1,172.4,540.1z"/>
			</g>
			<g>
				<path class="st2" d="M172.4,546.4h-4.1c-0.4,0-0.8-0.3-0.8-0.8s0.3-0.8,0.8-0.8h4.1c0.4,0,0.8,0.3,0.8,0.8
					S172.8,546.4,172.4,546.4z"/>
			</g>
			<g>
				<path class="st2" d="M164.5,546.4h-12.4c-0.4,0-0.8-0.3-0.8-0.8s0.3-0.8,0.8-0.8h12.4c0.4,0,0.8,0.3,0.8,0.8
					S164.9,546.4,164.5,546.4z"/>
			</g>
		</g>
	</g>
	<g id="Bottom_38_">
		<g>
			<path class="st2" d="M102.7,646l-0.7,29.4l51,0.5c0,0,0.3-6-9.4-10.5s-11.7-22.3-11.7-22.3L102.7,646z"/>
		</g>
		<g>
			<path class="st2" d="M10.9,633.6L0,660.9l47.6,18.2c0,0,2.3-5.5-5.2-13.1s-3.2-25-3.2-25L10.9,633.6z"/>
		</g>
		<g>
			<path class="st3" d="M63.7,528.9c0.8,16,21.3,46.2,24.6,67.8s11.9,60.5,11.9,60.5l40.3-7.6c0,0-5.3-60.4-22.8-97.7
				c-12.8-27.3-31.2-45.4-31.2-45.4L63.7,528.9z"/>
		</g>
		<g>
			<path class="st3" d="M39.1,656.1c-1.5,0.8-3.1,1.7-4.6,2.5c-0.6,0.3-0.1,1.2,0.5,0.9c1.5-0.8,3.1-1.7,4.6-2.5
				C40.1,656.7,39.6,655.8,39.1,656.1z"/>
		</g>
		<g>
			<path class="st3" d="M39.8,659.3c-1.2,1-2.5,1.9-3.7,2.9c-0.5,0.4,0,1.3,0.5,0.9l3.7-2.9C40.8,659.7,40.3,658.9,39.8,659.3z"/>
		</g>
		<g>
			<path class="st3" d="M137.1,658c-0.6,1.3-1.2,2.5-1.9,3.8c-0.3,0.6,0.6,1.1,0.9,0.5l1.9-3.8C138.3,658,137.4,657.5,137.1,658z"/>
		</g>
		<g>
			<path class="st3" d="M140,661.4c-0.6,1.3-1.2,2.5-1.9,3.8c-0.3,0.6,0.6,1.1,0.9,0.5l1.9-3.8C141.1,661.4,140.3,660.9,140,661.4z"
				/>
		</g>
		<g>
			<path class="st4" d="M132.7,648.3c-0.4,0-0.7-0.3-0.7-0.7c-1.6-58-36.1-121.1-36.4-121.7c-0.2-0.4-0.1-0.8,0.3-1s0.8-0.1,1,0.3
				c0.3,0.6,34.9,64,36.6,122.4C133.4,648,133.1,648.3,132.7,648.3L132.7,648.3z"/>
		</g>
		<g>
			<path class="st4" d="M102.5,538.9c-0.1,0-0.2,0-0.3,0c-0.4-0.1-0.6-0.6-0.4-1c1.9-5.1-0.4-12.1-0.4-12.2c-0.1-0.4,0.1-0.8,0.5-1
				c0.4-0.1,0.8,0.1,1,0.5c0.1,0.3,2.6,7.6,0.4,13.2C103.1,538.7,102.8,538.9,102.5,538.9z"/>
		</g>
		<g>
			<path class="st3" d="M73,565.9c-2.9,30-28.6,87.5-28.6,87.5l-37.8-16c0,0,10.8-31.8,20-51.5c7.5-16,11.2-44.5,16.8-61.9
				c1.3-4,2.7-7.5,4.2-10l5.4-0.8l22.1-3.2C75.2,509.9,75.9,535.9,73,565.9z"/>
		</g>
		<g>
			<path class="st4" d="M72.1,554.9c-0.3,0-0.5-0.1-0.7-0.4l-2.5-4.5l-7.5-2.7c-0.4-0.1-0.6-0.6-0.5-1s0.6-0.6,1-0.5l8,2.8l2.7,5
				c0.2,0.4,0.1,0.8-0.3,1C72.4,554.9,72.3,554.9,72.1,554.9z"/>
		</g>
	</g>
	<path class="st5" d="M55.2,505.2l-2.1,7.9l-5.4,0.8c-1.5,2.6-2.9,6-4.2,10c-3.3-1.2-7.5-3.3-12.1-7.1L55.2,505.2z"/>
	<g id="Hand_2_56_">
		<g>
			<path class="st6" d="M19.4,475.5c-4,13.4-0.9,34.4,9.8,42c0,0,13.5-4.7,16.7-4c3.4-5.8,7.3-11.2,10.9-16.9
				c-4.6-1.8-8.7-3.2-9.6-8.4c-2.6-14,14-11,25-7.7c2.7-10.8,3.7-27.7,3.7-27.7C49.2,446,25.8,454.4,19.4,475.5z"/>
		</g>
	</g>
	<g id="Tablet_8_">
		<g>
			<path class="st2" d="M58.7,513.6H31.9c-2.7,0-5-2.2-5-5v-38.1c0-2.7,2.2-5,5-5h26.8c2.7,0,5,2.2,5,5v38.1
				C63.7,511.3,61.5,513.6,58.7,513.6z"/>
		</g>
		<g>
			<path class="st3" d="M34.2,465.5H32c-2.7,0-5,2.2-5,5v38.1c0,2.7,2.2,5,5,5h2.2V465.5z"/>
		</g>
		<g>
			<path class="st3" d="M30.6,505.4h-3.9c-1.8,0-3.3-1.5-3.3-3.3v-0.6c0-1.8,1.5-3.3,3.3-3.3h3.9V505.4z"/>
		</g>
		<g>
			<path class="st3" d="M-16.1,670.8c-0.4,0-0.8-0.3-0.8-0.8v-70.9c0-7.4,6-13.4,13.4-13.4h5.2c6.6,0,11.9-5.3,11.9-11.9v-59.5
				c0-7.4,6-13.4,13.4-13.4c0.4,0,0.8,0.3,0.8,0.8s-0.3,0.8-0.8,0.8c-6.6,0-11.9,5.3-11.9,11.9v59.5c0,7.4-6,13.4-13.4,13.4h-5.2
				c-6.6,0-11.9,5.3-11.9,11.9v70.9C-15.4,670.5-15.7,670.8-16.1,670.8z"/>
		</g>
		<g>
			<path class="st3" d="M-10.3,671.7h-11.6v-5.8c0-3.2,2.6-5.8,5.8-5.8l0,0c3.2,0,5.8,2.6,5.8,5.8
				C-10.3,665.9-10.3,671.7-10.3,671.7z"/>
		</g>
	</g>
	<g>
		<path class="st5" d="M97.4,426c3.1,7.4,3.3,15.3-6.4,18.4c-6.6,2.1-14.5-1-17.6-8.4s-0.2-15.6,6.4-18.4
			C86.4,414.8,94.3,418.6,97.4,426z"/>
	</g>
	<g>
		<circle class="st3" cx="91.9" cy="425.3" r="1"/>
	</g>
	<g>
		<path class="st2" d="M92.6,415.9c0-6.6-10.9,0.8-12.8,1.7l0,0c-5.9,1.1-11.1,8.9-9.3,15.8c1.5,5.9,8.3,12.9,11.9,11.2
			c5.9-3.5,6.8-9.3,4.1-14.8c1-1.2-0.2-3,0.3-4.4C87.5,423.2,92.7,418.3,92.6,415.9z"/>
	</g>
	<g>
		<path class="st5" d="M84.4,429.3c-11-1-9.7,7.8-5.6,9.8c3.4,1.6,8.6,1,10.7-4C91.6,430.1,84.4,429.3,84.4,429.3z"/>
	</g>
	<g>
		<path class="st3" d="M85.4,433.1c-2.1-1.1-4.7-0.6-6.2,1.3c-0.4,0.5,0.3,1.2,0.7,0.7c1.2-1.5,3.3-2,5-1.1
			C85.5,434.2,86,433.4,85.4,433.1z"/>
	</g>
	<g>
		<path class="st3" d="M98.2,428.4c-1.1-1.9-2.5-3.7-4.2-5.2c-0.5-0.4-1.2,0.3-0.7,0.7c1.6,1.5,2.9,3.1,4,5
			C97.7,429.5,98.5,429,98.2,428.4z"/>
	</g>
	<g>
		<path class="st6" d="M83.8,453c-15.6-3.4-21.9,4-27.5,26.8s-15.6,36-15.6,36s45.4,12.8,64.7,10C105.4,525.9,117,460.2,83.8,453z"
			/>
	</g>
	<g>
		<polygon class="st6" points="71.4,455.6 73,447.8 94.3,450.2 91.7,459.8 		"/>
	</g>
	<g>
		<path class="st3" d="M56.1,481.3c-0.1,0-0.1,0-0.2,0c-0.4-0.1-0.6-0.5-0.5-0.9l4.5-14.6c0.1-0.4,0.5-0.6,0.9-0.5s0.6,0.5,0.5,0.9
			l-4.5,14.6C56.8,481.1,56.5,481.3,56.1,481.3z"/>
	</g>
	<g id="Hand_50_">
		<g>
			<path class="st6" d="M145.8,446c-5.3,10.6-8.7,14.5-15,16.3c-9.5,2.8-32.2-9.7-46.4-7.4L81,484c0,0,20.6,13.4,44.4,11.5
				c20.6-1.7,34.3-22.8,36.8-33.2C159.7,455.4,151.4,449.8,145.8,446z"/>
		</g>
		<g>
			<path class="st3" d="M103.2,493.6c-0.1,0-0.2,0-0.3-0.1c0,0-3.5-1.5-6.9-1.5l0,0c-0.4,0-0.7-0.3-0.8-0.7c0-0.4,0.4-0.8,0.8-0.8
				c3.7,0,7.3,1.5,7.5,1.6c0.4,0.2,0.6,0.6,0.4,1C103.7,493.4,103.5,493.6,103.2,493.6z"/>
		</g>
		<g>
			<path class="st5" d="M146.4,444.9c-1.2-8.5,0.3-15.9,3.9-18.6c5.1-3.8,3.6,4.6,3.6,4.6L146.4,444.9z"/>
		</g>
		<g>
			<path class="st2" d="M157.9,420.9l-18.3,18.4c-1.7,1.7,1,4.4,2.7,2.7l18.3-18.4c0.9-0.9,2.1-3.5,1.4-4.1
				C161.4,418.7,158.8,420,157.9,420.9z"/>
		</g>
		<g>
			<path class="st5" d="M145.4,446.7c2.9-5.1,4.3-13.3,7.7-20.6c2.9-6.2,5.4-8.1,6.7-5.5c0.9,1.7-0.9,3.6-2.1,9.3
				c0,0,4.3,0.9,4.6,3.9c0,0,3.8,0.9,4.1,6c0.1,2.5,0.9,5.6-2,5.1c-0.6,2.6-1.1,7.7-1.6,11.2c-0.9,6.3-3.9,8.2-3.9,8.2L145.4,446.7z
				"/>
		</g>
		<g>
			<path class="st3" d="M157,430.9l-0.7,2c-0.2,0.6,0.7,0.9,1,0.3c0.2-0.7,0.5-1.3,0.7-2C158.2,430.5,157.2,430.3,157,430.9z"/>
		</g>
		<g>
			<path class="st3" d="M165.6,440.2c-0.1-0.6-1.1-0.4-1,0.3c0.1,0.8,0,1.6-0.3,2.4c-0.2,0.6,0.7,0.9,1,0.3
				C165.7,442.1,165.7,441.2,165.6,440.2z"/>
		</g>
		<g>
			<path class="st3" d="M151.5,429.7c-1.2,2.3-2,4.7-2.4,7.3c-0.1,0.6,0.9,0.9,1,0.3c0.4-2.5,1.1-4.8,2.3-7.1
				C152.6,429.6,151.8,429.1,151.5,429.7z"/>
		</g>
		<g>
			<path class="st3" d="M161.8,434.5c-0.2,0.4-0.3,0.9-0.5,1.3c-0.2,0.6,0.7,0.9,1,0.3c0.2-0.4,0.3-0.9,0.5-1.3
				C163,434.2,162,433.9,161.8,434.5z"/>
		</g>
	</g>
	<g>
		<path class="st2" d="M193.1,420.9h-31.8c-0.4,0-0.8-0.3-0.8-0.8s0.3-0.8,0.8-0.8h30.3v-40.6H149V399c0,0.4-0.3,0.8-0.8,0.8
			s-0.8-0.3-0.8-0.8v-21.8h45.7L193.1,420.9L193.1,420.9z"/>
	</g>
	<g>
		<path class="st5" d="M181.7,385.5L181.7,385.5c-1-0.5-2.2-0.2-2.7,0.8l-9.6,17.7l-5.9-6.2c-0.7-0.7-1.8-0.9-2.6-0.4
			c-1.1,0.7-1.2,2.1-0.4,3l6.8,7.3l1.5,1.6c0.7,0.7,1.8,0.6,2.3-0.3l1.1-1.9l10.3-18.9C183,387.3,182.6,386.1,181.7,385.5z"/>
	</g>
	<g>
		<rect x="189.2" y="374.9" class="st5" width="6.1" height="6.1"/>
	</g>
</g>
<g>
	<g>
		<g>
			<path class="st5" d="M55.1,90.3c-34.7,0-62.9,28.2-62.9,62.9v158.6c0.3,1.5,1.5,2.9,3.3,2.9h119.6c1.8,0,2.9-1.1,2.9-2.9V153.2
				C118,118.6,89.7,90.3,55.1,90.3z M55.1,96.3c30.2,0,55.2,24.1,56.7,54.1H-1.6C-0.1,120.3,24.8,96.3,55.1,96.3z M52.4,308.8H-1.6
				V156.1h54.1V308.8z M112,308.8H58V156.1H112V308.8z"/>
		</g>
	</g>
	<g>
		<g>
			<path class="st5" d="M108.8,98.5C94.6,84.7,75.6,77.1,55.3,77.1c-41.5,0-73.7,30-75.7,69.9v177.7c0,1.5,1.1,2.9,2.9,2.9h145.4
				c1.8,0,2.9-1.1,2.9-2.9V147C129.9,129.2,122,111.5,108.8,98.5z M125,321.8H-14.6V147c1.5-36.7,31.8-64.3,69.6-64.3
				c32.6,0,67.8,24.1,69.9,64.3L125,321.8L125,321.8z"/>
		</g>
	</g>
</g>
</svg>
